<svg width="100pt" height="100pt" version="1.1" viewBox="0 0 100 100" xmlns="http://www.w3.org/2000/svg">
 <path d="m76.008 91.934c-1.6133-0.16797-4.3438-0.64844-5.9102-1.043-1.2148-0.30469-1.4844-0.57422-1.2539-1.2383 0.18359-0.52344 0.19141-0.52344 4.1211-1.0664 6.0195-0.82813 10.352-2.1406 12.559-3.8086 0.98828-0.74609 1.5508-1.7695 1.3906-2.5352-0.14844-0.71484-0.72656-1.6562-1.4258-2.3281-1.0312-0.98437-3.7578-2.7617-4.6211-3.0117-3.6055-1.0469-8.4766-1.207-11.918-0.39062-0.72266 0.17188-1.375 0.3125-1.4531 0.3125s-0.14453-0.44141-0.14453-0.97656c0-3.7812-1.7852-11.098-3.7422-15.332-0.34375-0.74609-0.58594-1.3945-0.53906-1.4414 0.046876-0.046875 0.92188 0.035156 1.9453 0.18359 5.5781 0.80859 12.312 3.8008 18.512 8.2188 3.7578 2.6797 7.9141 6.7617 9.2031 9.0391 0.16797 0.30078 0.55859 0.95703 0.86719 1.4609 1.0781 1.7695 1.5898 3.9961 1.3359 5.8281-0.54297 3.9492-4.4336 6.8789-10.512 7.9258-1.6914 0.28906-6.4766 0.41016-8.418 0.21094zm8.7773-1.6211c4.0898-0.69141 6.1719-2.2695 6.1484-4.6641-0.007813-0.74609-0.125-1.1484-0.63672-2.1836-0.58203-1.1719-2.1953-3.2148-2.5391-3.2148-0.082031 0 0.007813 0.29688 0.19531 0.66406 0.47656 0.92188 0.47656 2.3008 0 3.207-1.2891 2.4609-5.9844 4.5117-12.77 5.5781-0.96484 0.15234-1.7539 0.32422-1.7539 0.37891s0.75391 0.1875 1.6758 0.29297c0.92188 0.10547 1.8164 0.21484 1.9883 0.24609 0.76953 0.14062 6.3672-0.082032 7.6875-0.30469zm-31.031-1.1992c-6.207-0.21094-7.3516-0.3125-7.4141-0.64844-0.082032-0.42188 0.39844-0.85938 1.207-1.1016 1.4297-0.42578 3.2891-1.5273 4.1055-2.4297 1.8203-2.0117 3.2266-4.6406 3.5781-6.6992 0.17188-0.99219 0.16406-1.1445-0.050781-1.2656-0.13281-0.074219-0.59766-0.64844-1.0273-1.2734-3.2227-4.6758-3.4883-9.2227-0.74609-12.816 0.66016-0.86328 0.68359-1.3906 0.066406-1.4609-0.33594-0.039063-0.50781 0.10938-1.0586 0.89062-1.3711 1.957-1.8906 3.6367-1.8906 6.1016 0 2.582 0.82422 5.1484 2.3945 7.4531 0.3125 0.45703 0.56641 0.86328 0.56641 0.89453 0 0.09375-3.0703 0.074219-5.9453-0.039062l-2.5664-0.10156 0.0625-2.3711c0.066406-2.5234-0.125-3.9727-0.78516-5.9141-0.51562-1.5156-1.6172-3.5273-2.5508-4.6602-1.7891-2.168-4.668-3.6758-4.668-2.4414 0 0.31641 0.17578 0.46875 1.0117 0.875 3.1602 1.5312 5.5977 5.8672 5.9961 10.664 0.16406 2-0.10937 3.4375-0.99219 5.2305-1.9141 3.875-6.1875 9.3672-8.168 10.488-0.5625 0.32031-0.77734 0.33594-4.0547 0.32031-1.9023-0.011719-4.3711-0.0625-5.4844-0.11719-1.8984-0.09375-2.0312-0.12109-2.0742-0.42578-0.039063-0.27734 0.29688-0.5 2.2266-1.4727 2.1484-1.082 2.3516-1.2266 3.6328-2.5586 0.74609-0.77734 1.6992-1.9102 2.1094-2.5195 0.75781-1.1172 2.1914-4.418 2-4.6055-0.058594-0.054687-0.76172-0.125-1.5664-0.15625l-1.4648-0.054687-11.43 12-4.3555-0.054688c-4.5664-0.058594-5.0977-0.13281-5.1836-0.74219-0.039063-0.26953 0.15625-0.42578 1.0938-0.87109 0.62891-0.29688 1.6094-0.69922 2.1797-0.88672 1.2852-0.42969 2.5977-1.4023 4.2891-3.1914 1.4102-1.4922 2.3164-3.0742 2.4844-4.3477 0.13281-0.98828-0.26172-2.0117-0.98047-2.5625-0.63672-0.48438-1.2031-1.5352-1.5664-2.8945-0.57422-2.1484-0.20703-6.8086 0.8125-10.309 0.98828-3.3945 2.7578-7.3242 4.4531-9.8945 1.5781-2.3906 2.2617-4.5195 2.4336-7.5938 0.36719-6.4922-3.3125-12.691-8.1055-13.652-0.86719-0.17578-0.89844-0.16797-2.2344 0.47266-1.7891 0.85938-3.1406 1.8359-4.6211 3.3398-0.66797 0.67969-1.2383 1.207-1.2695 1.1758-0.11328-0.11719-3.2031-6.8672-3.2031-6.9961 0-0.074219 1.3516-1.2383 3-2.5938 1.6523-1.3516 4.332-3.5547 5.9609-4.8906 1.6289-1.3359 3.5-2.793 4.1602-3.2383l1.1992-0.80859 0.38281 0.83203c0.69141 1.5117 2.1094 2.2266 4.1406 2.082 1.2578-0.089844 2.3906-0.48438 3.2422-1.1367l0.49219-0.375 0.94141 0.70703c2.7773 2.0859 5.3359 5.9609 6.8477 10.359 1.9609 5.7148 2.3789 11.863 1.1953 17.727-0.45703 2.2695-0.44922 2.1289-0.10938 1.9961 0.74219-0.29297 3.2344-0.73047 4.8516-0.85156 6.7617-0.51172 13.469 1.9531 18.273 6.7266 1.9141 1.9023 2.8672 3.6367 4.3008 7.8438 1.3594 3.9844 2.1953 7.8789 2.3398 10.918l0.089844 1.8789-3.6211 5.6055c-4.2852 6.6328-4.2812 6.625-4.7305 6.5938-0.1875-0.011719-2.0781-0.082031-4.2031-0.15625zm-22.098-15.066c-3.4922-7.0547-4.8945-18.48-3.0273-24.719 1.3438-4.4883 1.3867-4.7109 1.3828-7.1094 0-2.625-0.20312-3.5625-1.207-5.6133-0.50781-1.0352-0.92188-1.5977-1.9023-2.582-2.0234-2.0312-4.4102-3.0312-7.2344-3.0312h-1.3359l0.98438 0.58203c3.2812 1.9414 5.6406 5.832 6.3359 10.438 0.55469 3.6914 0.011718 7.375-1.5469 10.457-0.28906 0.57422-0.75391 1.3281-1.0273 1.6719-1.3008 1.6211-3.6836 7.2383-4.5039 10.602-0.82422 3.3867-0.96094 6.6484-0.36328 8.5938 0.1875 0.60937 0.44141 1.1914 0.5625 1.293 0.18359 0.15234 9.7305 0.83984 12.906 0.92969l0.73047 0.019531zm-14.242-50.016c0.50391-0.65625 0.98047-1.2773 1.0586-1.3828 0.21094-0.28516-0.007812-0.70313-0.37109-0.70313-0.28125 0-1.1875 0.58594-2.1484 1.3945-0.375 0.31641-0.44531 0.83203-0.19922 1.4766 0.26172 0.6875 0.67578 0.48828 1.6602-0.78906zm4.4609-4.1289c-0.79688-0.39453-1.2891-1.0391-1.3906-1.8203-0.066406-0.53125 0.003906-0.66406 0.89062-1.6367 0.98047-1.0781 2.5586-2.4492 2.8125-2.4492 0.078125 0 0.14453 0.22656 0.14844 0.50781 0.011718 1.2578 1.0469 3.1133 2.1562 3.875l0.52734 0.36328-0.52344 0.4375c-1.2266 1.0234-3.3516 1.3555-4.625 0.72656zm5.2266-2.4375c-1.0586-0.81641-1.7461-2.3242-1.6523-3.6016 0.050781-0.67969 0.050781-0.67969 1.0234-1.043 0.97266-0.36328 1.7266-0.46875 2.9531-0.41016l0.65234 0.03125-0.23047 0.46094c-0.53516 1.0742-0.53125 3.0039 0.011719 4.0898 0.13281 0.26953 0.22656 0.49609 0.20312 0.50781-0.10156 0.058594-1.957 0.39453-2.168 0.39453-0.13281 0-0.48828-0.19141-0.79297-0.42969zm5.4336 0.26562c-1-0.16797-1.5938-0.74219-1.9141-1.8477-0.20703-0.71094-0.21484-0.98437-0.058594-1.6875 0.10156-0.46094 0.33984-1.0039 0.52734-1.2031l0.33984-0.36719 2.5391 0.50781-0.082031 0.89844c-0.10547 1.1797 0.24219 2.0859 1.1445 2.9766l0.69531 0.68359-0.82031 0.097656c-0.97266 0.11719-1.3477 0.10547-2.3633-0.0625zm3.7266-1.1289c-0.76172-0.43359-1.3242-1.3711-1.3242-2.2148 0-0.87891 0.16406-1.0508 1.1914-1.2656 0.5-0.10547 1.0117-0.23047 1.1406-0.28125 0.16797-0.066406 0.31641 0.10547 0.52344 0.61328 0.42578 1.0391 1.4102 1.6602 2.8828 1.8242 0.30859 0.035156 0.21094 0.14062-0.625 0.67578-0.54688 0.34766-1.1875 0.71875-1.4258 0.82031-0.6875 0.28906-1.6797 0.21484-2.3672-0.17188zm3.4062-2.6719c-0.56641-0.24609-0.99609-0.79297-0.99609-1.2734 0-0.23438 0.15234-0.39453 0.50781-0.53516 0.27734-0.10938 0.92187-0.44531 1.4258-0.74609l0.91797-0.54688 0.30469 0.41797c0.36719 0.50391 1.0469 0.87891 1.5898 0.87891 0.21875 0 0.39844 0.058594 0.39844 0.12891 0 0.28516-1.1836 1.4844-1.6602 1.6836-0.64453 0.26953-1.8555 0.26562-2.4883-0.011719zm3.7148-2.9258c-0.31641-0.082031-0.58203-0.28516-0.69141-0.52734-0.16406-0.36328-0.10547-0.46094 0.82031-1.3984 1.0977-1.1055 1.3828-1.2617 1.8594-1.0078 0.46094 0.24609 0.39844 0.86719-0.20312 1.9453-0.56641 1.0156-0.92578 1.2148-1.7852 0.98828z"/>
</svg>
